<!-- Generated by IcoMoon.io -->
<svg version="1.1" xmlns="http://www.w3.org/2000/svg" width="32" height="32" viewBox="0 0 32 32">
<title>curled-hair</title>
<path d="M5.669 25.659c2.206-0.227 4.008-5.594 3.902-7.129 0.127-0.126 1.98 1.264 1.874-0.877-1.092 1.073-1.578-0.407-1.178-1.058 0.398-0.651 0.7-0.598 0.92-0.997 0.223-0.399 0.323-2.726 1.104-2.81 1.134 1.445 1.949 1.052 1.617 0.257-0.453 0.886-0.996-0.606-0.416-1.020 0.742-0.513 1.535-0.39 2.279 1.030 0.188 0.574 0.031 2.206 0.132 2.558s1.322 1.685 1.322 2.206c0 0.521-0.767 0.198-0.808 0.363-0.041 0.163-0.126 0.365-0.008 0.529 0.135 0.186 0.506 0.237 0.506 0.393 0 0.295-0.438 0.513-0.438 0.513s0.355 0.243 0.348 0.515c-0.007 0.272-0.641 0.054-0.651 0.301 0.947 3.039-2.468 0.942-3.582 1.513s-3.656 2.561-2.326 5.101c0.49 0.935 2.5-0.343 4.28-0.078 3.053 0.452 4.043 3.765 9.038 0.355 3.87-2.296 6.065 0.198 6.859-2.774 0.792-2.972-3.925-4.875-2.418-7.293 0.84-1.348 4.162-2.775 3.965-7.413-0.428-3.209-3.569-3.448-3.33-2.18 1.387 0.237 0.715 1.808-0.158 1.744-2.18-0.158 0.318-3.448-3.925-5.748-4.241-2.299-5.672 3.993-9.795 3.002-0.624-0.161-1.454-0.839-2.255-0.822-0.983 0.022-1.942 0.746-2.655 0.555-1.298-0.349-2.617-1.589-3.609-1.271-1.191 0.382-1.164 2.756-1.943 3.607-1.511 1.649-3.261 2.126-3.25 3.171 0.010 0.999 1.982 2.3 1.585 3.845s-2.731 1.197-2.655 1.782c0.127 1.010 1.671 1.963 1.822 2.221s-1.028 0.995-0.832 1.982c0.175 1.226 3.409 2.379 0.594 3.488 0.913 0.794 1.878 0.664 4.083 0.438z"></path>
</svg>
