<!-- Generated by IcoMoon.io -->
<svg version="1.1" xmlns="http://www.w3.org/2000/svg" width="32" height="32" viewBox="0 0 32 32">
<title>hairdryer-and-comb</title>
<path d="M25.853 13.709c1.965-1.356 3.254-3.621 3.254-6.189 0-4.153-3.367-7.52-7.52-7.52-0.802 0-1.574 0.128-2.299 0.362-5.051 0-14.599 0-15.524 0-1.266 0-1.048 6.869 0 6.869 0.548 0 5.61 0 10.319 0-0.003 0.098-0.014 0.192-0.014 0.289 0 3.734 2.723 6.823 6.29 7.412v1.627h-0.868v1.627h0.868v0.976h-0.868v1.627h0.868v3.197c-0.536 0.562-0.868 1.319-0.868 2.154 0 1.737 1.425 3.146 3.183 3.146 0.485 0 0.944-0.111 1.355-0.304l2.022 3.019 0.84-0.563-2.025-3.023c0.607-0.574 0.987-1.38 0.987-2.275 0-0.367-0.068-0.72-0.184-1.049h0.184v-11.381h0.001zM21.587 4.772c0.564 0 1.088 0.17 1.523 0.461h-3.045c0.436-0.291 0.959-0.461 1.523-0.461zM19.744 5.486h3.686c0.192 0.175 0.36 0.375 0.496 0.596h-4.677c0.136-0.222 0.303-0.422 0.495-0.596zM19.11 6.336h4.953c0.096 0.201 0.171 0.416 0.218 0.641h-5.388c0.046-0.226 0.121-0.44 0.218-0.641zM21.587 10.267c-0.557 0-1.075-0.166-1.508-0.452h3.016c-0.434 0.285-0.951 0.452-1.509 0.452zM23.42 9.562h-3.666c-0.183-0.164-0.345-0.353-0.478-0.56h4.623c-0.135 0.208-0.297 0.396-0.479 0.56zM24.043 8.749h-4.911c-0.092-0.186-0.165-0.382-0.215-0.588h5.339c-0.048 0.206-0.121 0.403-0.213 0.588zM24.304 7.909h-5.435c-0.019-0.127-0.030-0.257-0.030-0.389 0-0.098 0.005-0.193 0.015-0.289h5.465c0.009 0.096 0.016 0.192 0.016 0.289 0 0.132-0.014 0.262-0.031 0.389z"></path>
<path d="M12.621 20.246h-0.579v-6.218h-0.542v6.218h-0.434v-6.218h-0.542v6.218h-0.579v-6.218h-0.543v6.218h-0.542v-6.218h-0.542v6.218h-0.579v-6.218h-0.542v6.218h-0.687v-6.218h-0.542v6.218h-0.579v-6.218h-0.542v9.644l0.868 4.094h6.581l0.867-4.094v-9.644h-0.542z"></path>
</svg>
