<!-- Generated by IcoMoon.io -->
<svg version="1.1" xmlns="http://www.w3.org/2000/svg" width="32" height="32" viewBox="0 0 32 32">
<title>nail</title>
<path d="M31.918 0.658c-0.166-0.4-0.557-0.66-0.99-0.658h-9.018c-0.428-0.001-0.838 0.168-1.141 0.471l-3.393 3.384c-0.304 0.3-0.475 0.71-0.476 1.137s0.171 0.837 0.475 1.137l0.765 0.758-3.85 3.794c-0.077-0.149-0.155-0.297-0.244-0.436l-0.001-0.002-0.005-0.009-0.007-0.012-0.008-0.011c-0.057-0.1-0.122-0.195-0.192-0.286l-0.002-0.002-0.005-0.008c-0.129-0.181-0.267-0.355-0.415-0.52v0l-0.006-0.008-0.005-0.004c-0.012-0.014-0.025-0.027-0.039-0.040-0.073-0.078-0.146-0.154-0.22-0.225-0.010-0.009-0.019-0.020-0.029-0.029l-0.003-0.002c-0.891-0.861-2.038-1.41-3.268-1.565-0.107-0.018-0.215-0.030-0.323-0.036-0.030-0.005-0.061-0.008-0.092-0.008-0.041-0.004-0.083-0.005-0.125-0.004-0.016 0-0.032-0.002-0.048-0.002l-0.003 0.001c-0.060-0.003-0.121-0.006-0.184-0.006h-1.067c-0.119 0-0.237 0.005-0.325 0.010-0.011 0-0.022 0-0.033 0.001l-0.006 0.002c-0.029 0-0.059 0.002-0.088 0.006-0.101 0.006-0.202 0.017-0.302 0.033l-0.015 0.002-0.007 0.001-0.002 0.001c-1.23 0.156-2.376 0.705-3.268 1.566-0.081 0.077-0.159 0.158-0.254 0.261-0.013 0.011-0.025 0.023-0.036 0.036l-0.003 0.002-0.005 0.006-0.002 0.002-0.003 0.004c-0.146 0.157-0.28 0.325-0.402 0.502l-0.007 0.011-0.004 0.005c-0.071 0.1-0.141 0.201-0.199 0.296-0.005 0.008-0.008 0.016-0.013 0.023l-0.005 0.008-0.001 0.003c-0.438 0.7-0.721 1.486-0.828 2.305-1.395 1.309-2.188 3.136-2.192 5.049v13.333c0.001 0.589 0.478 1.066 1.067 1.067h14.933c0.589-0.001 1.066-0.478 1.067-1.067v-13.333c-0.003-1.402-0.43-2.77-1.224-3.925l4.587-4.521 0.774 0.767c0.633 0.623 1.649 0.623 2.282 0.001l8.197-8.097c0.308-0.305 0.401-0.765 0.235-1.166zM3.201 13.333c0-0.165 0.010-0.319 0.025-0.479l0.001-0.015v-0.005c0.001-0.007 0.002-0.015 0.003-0.022h0.001c0.078-0.723 0.322-1.418 0.714-2.031 0.053-0.086 0.11-0.167 0.166-0.247 0.104-0.146 0.216-0.287 0.335-0.421 0.015-0.014 0.028-0.027 0.036-0.036 0.057-0.061 0.115-0.122 0.178-0.182 0.009-0.009 0.017-0.018 0.026-0.027v-0.001l0.004-0.004c0.739-0.713 1.69-1.165 2.71-1.288 0.081-0.013 0.162-0.022 0.244-0.025 0.017-0.001 0.034-0.002 0.051-0.005h0.002c0.098-0.005 0.201-0.010 0.304-0.010h1.067c0.047 0 0.095-0.001 0.186 0.005 0.028-0.001 0.056 0 0.084 0.002 0.009 0.001 0.020 0.002 0.032 0.002 0.018 0.003 0.036 0.005 0.055 0.005 0.089 0.005 0.178 0.014 0.266 0.029 1.014 0.126 1.959 0.578 2.693 1.289 0.071 0.066 0.137 0.138 0.204 0.209 0.010 0.011 0.022 0.022 0.033 0.033 0.118 0.133 0.229 0.272 0.332 0.417l0.009 0.013c0.056 0.079 0.112 0.158 0.17 0.252 0.137 0.218 0.255 0.447 0.353 0.685l-2.98 2.937c-0.503 0.056-2.008 0.369-3.761 2.123-0.666 0.667-0.326 2.012 0.792 3.13 0.437 0.452 0.97 0.799 1.56 1.015 0.219 0.076 0.448 0.117 0.679 0.12 0.331 0.012 0.653-0.112 0.891-0.343 1.768-1.768 2.072-3.282 2.124-3.773l1.079-1.063v4.644c0.001 1.074-0.325 2.123-0.933 3.008-1.083-0.91-2.452-1.408-3.867-1.408h-1.067c-1.414 0-2.784 0.498-3.867 1.408-0.609-0.885-0.934-1.934-0.933-3.008v-6.933zM10.535 15.484l1.183 1.172c-0.063 0.403-0.365 1.605-1.807 3.047-0.030 0.030-0.191 0.061-0.479-0.035-0.432-0.165-0.823-0.423-1.143-0.757-0.779-0.779-0.895-1.518-0.792-1.622 1.431-1.431 2.624-1.74 3.037-1.806zM12.246 24.089c-2.064 2.015-5.359 2.015-7.424 0 0.891-0.747 2.016-1.156 3.178-1.155h1.067c1.162-0.001 2.288 0.408 3.178 1.155zM16.001 17.6v13.333h-14.933v-13.333c0.002-1.203 0.375-2.377 1.067-3.362v6.028c0 1.519 0.542 2.988 1.53 4.142 0.010 0.016 0.021 0.031 0.032 0.046 0.007 0.006 0.016 0.008 0.023 0.014 1.211 1.395 2.967 2.197 4.814 2.197s3.604-0.801 4.815-2.197c0.007-0.006 0.016-0.008 0.023-0.015 0.012-0.015 0.022-0.030 0.032-0.046 0.988-1.154 1.531-2.623 1.53-4.142v-5.696l0.136-0.134c0.606 0.944 0.929 2.041 0.931 3.163zM12.269 15.7l-0.773-0.766 2.927-2.885c0.042-0.031 0.080-0.067 0.111-0.109l4.366-4.303 0.773 0.766-7.404 7.297zM22.735 9.163c-0.216 0.213-0.564 0.213-0.78 0l-3.829-3.792c-0.102-0.1-0.159-0.237-0.159-0.38s0.058-0.28 0.16-0.38l3.394-3.385c0.103-0.102 0.243-0.159 0.388-0.16l9.023-0.002-8.198 8.098z"></path>
</svg>
