<!-- Generated by IcoMoon.io -->
<svg version="1.1" xmlns="http://www.w3.org/2000/svg" width="32" height="32" viewBox="0 0 32 32">
<title>nail-file</title>
<path d="M6.303 26.5c-1.279 0-2.516 0.375-3.58 1.084l0.554 0.832c0.899-0.599 1.946-0.916 3.026-0.916h0.394c1.080 0 2.126 0.317 3.026 0.916l0.555-0.832c-1.063-0.709-2.301-1.084-3.579-1.084z"></path>
<path d="M8.29 25.791l0.552 0.183 0.316-0.949-0.552-0.183c-1.362-0.454-2.851-0.454-4.214 0l-0.551 0.183 0.317 0.949 0.551-0.184c1.157-0.386 2.424-0.386 3.581 0z"></path>
<path d="M24.854 20.146c-0.195-0.195-0.512-0.195-0.707 0l-0.646 0.646-0.793-0.793 1.146-1.146c0.195-0.195 0.195-0.512 0-0.707l-17.5-17.5c-0.093-0.094-0.221-0.146-0.354-0.146-1.423 0-2.761 0.554-3.767 1.561l-0.172 0.171c-1.006 1.007-1.56 2.345-1.56 3.768 0 0.133 0.052 0.26 0.146 0.354l2.412 2.412c-0.038 0.071-0.058 0.152-0.058 0.235v2.89c-1.306 2.657-2 5.62-2 8.582v11.028h1v-11.028c0-2.024 0.346-4.048 1-5.965v2.993c0 1.378 1.122 2.5 2.5 2.5h2c1.379 0 2.5-1.122 2.5-2.5v-1.793l0.496 0.497c0.333 1.398 0.504 2.834 0.504 4.268v11.028h1v-11.028c0-1.007-0.087-2.012-0.242-3.008l6.389 6.389c0.098 0.098 0.226 0.147 0.354 0.147s0.256-0.049 0.354-0.146l1.146-1.146 0.793 0.793-0.646 0.646c-0.195 0.195-0.195 0.512 0 0.707l6.5 6.5 0.707-0.707-6.146-6.146 3.293-3.293 6.146 6.146 0.707-0.707zM20.793 20.5h-4.586l-1-1h6.586zM14.207 18.5l-1-1h8.586l1 1zM12.793 8.5h-8.586l-1-1h8.586zM13.793 9.5l1 1h-8.586l-1-1zM15.793 11.5l1 1h-8.586l-1-1zM17.793 13.5l1 1h-8.586l-1-1zM19.793 15.5l1 1h-8.586l-1-1zM7.793 3.5l1 1h-7.023c0.131-0.354 0.306-0.69 0.527-1zM6.793 2.5h-3.56c0.724-0.605 1.616-0.952 2.565-0.996zM1.532 5.5h8.261l1 1h-8.586l-0.703-0.702c0.004-0.1 0.016-0.199 0.028-0.298zM9 17.5c0 0.827-0.673 1.5-1.5 1.5h-2c-0.827 0-1.5-0.673-1.5-1.5v-7.793l5 5zM18.5 22.793l-1.293-1.293h2.586zM20.707 22l1.293-1.293 0.793 0.793-1.293 1.293z"></path>
<path d="M24.854 23.354l-0.707-0.707-1.5 1.5c-0.195 0.195-0.195 0.512 0 0.707l6.5 6.5 0.707-0.707-6.146-6.146z"></path>
</svg>
