<!-- Generated by IcoMoon.io -->
<svg version="1.1" xmlns="http://www.w3.org/2000/svg" width="32" height="32" viewBox="0 0 32 32">
<title>woman-hair-cut</title>
<path d="M3.427 17.313c0 0 0.007 0.004 0.016 0.011-0.005 0-0.010 0-0.015 0-1.638 0.065-2.922 1.311-2.862 2.775s1.442 2.598 3.080 2.53c1.143-0.047 2.113-0.67 2.575-1.538 0.051-0.074 1.888-2.707 4.894-3.383 0.074-0.006 0.413-0.073 0.93-0.184l-0.789-0.8-7.829 0.59zM3.609 21.77c-1.165 0.047-2.145-0.72-2.186-1.707-0.041-0.99 0.874-1.831 2.038-1.879s2.144 0.718 2.184 1.706c0.041 0.987-0.872 1.832-2.037 1.88z"></path>
<path d="M10.774 15.362c-2.979-0.416-4.977-2.742-5.124-2.916-0.521-0.858-1.555-1.424-2.724-1.376-1.639 0.066-2.922 1.311-2.862 2.775s1.442 2.597 3.080 2.53c0.053-0.001 0.105-0.008 0.156-0.014l8.073-0.034 1.093 1.106 10.935 0.076-0.472-0.294c-0.001 0.001-11.683-1.854-12.154-1.854zM3.107 15.516c-1.163 0.047-2.143-0.718-2.184-1.706s0.873-1.833 2.037-1.88c1.165-0.047 2.144 0.719 2.186 1.707s-0.873 1.831-2.038 1.879zM12.855 16.945c-0.25 0.011-0.462-0.185-0.472-0.435-0.009-0.249 0.185-0.461 0.435-0.47 0.25-0.012 0.461 0.185 0.472 0.433 0.009 0.25-0.185 0.461-0.435 0.472z"></path>
<path d="M31.938 31.247c-2.062-1.67-2.434-9.028-2.434-9.028s0.165 0.536 0.722 0.845c-0.722-3.071-1.073-5.522-1.073-5.522s0.578 0.865 1.196 0.66c-0.578-0.556-1.052-1.98-1.052-1.98s0.757 0.695 1.113 0.619c-0.462-0.682-1.154-3.421-1.154-3.421s1.2 1.118 1.757 1.056c-0.51-0.34-1.406-2.438-1.406-2.438s1.004 0.83 1.389 0.536c-0.633-0.232-1.080-1.010-1.080-1.010s1.376 0.223 1.792-0.103c-1.052-0.108-1.235-0.824-1.235-0.824s1.035-0.072 1.276-0.515c-2.266 0.551-1.88-3.236-2.328-4.55-0.449-1.314-2.576-7.198-6.492-5.136-2.301-1.105-4.626 1.159-5.379 3.565-0.933 2.984-0.234 6.514-3.361 7.997 0.608 0.165 1.556-0.495 1.556-0.495s0.168 0.381-0.11 0.526c0.495 0.238 1.605-0.835 1.605-0.835s-0.555 1.073-0.926 1.257c0.042 0.32 0.681-0.145 0.681-0.145s-0.506 1.279-1.052 1.67c0.011 0.391 0.845-0.238 1.36-0.556-0.203 0.213-0.897 1.313-1.913 1.947l-1.411 0.108c0.765 0.116 1.621 0.248 2.492 0.382-0.012 0.024-0.020 0.050-0.034 0.076 0.038-0.017 0.069-0.045 0.106-0.066 0.591 0.093 1.187 0.186 1.768 0.278 2.535-0.568 4.763-1.073 4.763-1.073l0.485-0.327-4.142 0.316c-0.114-0.548-0.229-1.106-0.342-1.702-0.287-0.734 1.669-9.152 2.35-9.255 1.506 2.184 3.771 5.277 4.844 6.163 2.843 2.433-0.644 4.466-1.361 4.989-0.742 0.864 1.154 6.491 2.225 6.945 0.165 0.344-0.476 3.666 0.061 4.634s1.824 2.187 1.094 4.908c1.443 1.875 0.372-7.008 0.372-7.008s1.443 6.699 3.277 6.515zM16.828 14.758c0 0-0.033 0.209-0.127 0.507l-0.773 0.059c0.489-0.175 0.9-0.566 0.9-0.566zM17.267 15.221c0.034-0.043 0.056-0.073 0.056-0.073s0 0.028 0.002 0.069l-0.058 0.004z"></path>
</svg>
