<svg aria-hidden="true" style="position: absolute; width: 0; height: 0; overflow: hidden;" version="1.1" xmlns="http://www.w3.org/2000/svg" xmlns:xlink="http://www.w3.org/1999/xlink">
<defs>
<symbol id="icon-chevron-thin-right" viewBox="0 0 20 20">
<path d="M13.25 10l-7.141-7.42c-0.268-0.27-0.268-0.707 0-0.979 0.268-0.27 0.701-0.27 0.969 0l7.83 7.908c0.268 0.271 0.268 0.709 0 0.979l-7.83 7.908c-0.268 0.271-0.701 0.27-0.969 0s-0.268-0.707 0-0.979l7.141-7.417z"></path>
</symbol>
<symbol id="icon-location-pin" viewBox="0 0 20 20">
<path d="M10 2.009c-2.762 0-5 2.229-5 4.99 0 4.774 5 11 5 11s5-6.227 5-11c0-2.76-2.238-4.99-5-4.99zM10 9.76c-1.492 0-2.7-1.209-2.7-2.7s1.208-2.7 2.7-2.7c1.49 0 2.699 1.209 2.699 2.7s-1.209 2.7-2.699 2.7z"></path>
</symbol>
<symbol id="icon-star" viewBox="0 0 20 20">
<path d="M10 1.3l2.388 6.722h6.412l-5.232 3.948 1.871 6.928-5.439-4.154-5.438 4.154 1.87-6.928-5.233-3.948h6.412l2.389-6.722z"></path>
</symbol>
<symbol id="icon-curled-hair" viewBox="0 0 32 32">
<path d="M5.669 25.659c2.206-0.227 4.008-5.594 3.902-7.129 0.127-0.126 1.98 1.264 1.874-0.877-1.092 1.073-1.578-0.407-1.178-1.058 0.398-0.651 0.7-0.598 0.92-0.997 0.223-0.399 0.323-2.726 1.104-2.81 1.134 1.445 1.949 1.052 1.617 0.257-0.453 0.886-0.996-0.606-0.416-1.020 0.742-0.513 1.535-0.39 2.279 1.030 0.188 0.574 0.031 2.206 0.132 2.558s1.322 1.685 1.322 2.206c0 0.521-0.767 0.198-0.808 0.363-0.041 0.163-0.126 0.365-0.008 0.529 0.135 0.186 0.506 0.237 0.506 0.393 0 0.295-0.438 0.513-0.438 0.513s0.355 0.243 0.348 0.515c-0.007 0.272-0.641 0.054-0.651 0.301 0.947 3.039-2.468 0.942-3.582 1.513s-3.656 2.561-2.326 5.101c0.49 0.935 2.5-0.343 4.28-0.078 3.053 0.452 4.043 3.765 9.038 0.355 3.87-2.296 6.065 0.198 6.859-2.774 0.792-2.972-3.925-4.875-2.418-7.293 0.84-1.348 4.162-2.775 3.965-7.413-0.428-3.209-3.569-3.448-3.33-2.18 1.387 0.237 0.715 1.808-0.158 1.744-2.18-0.158 0.318-3.448-3.925-5.748-4.241-2.299-5.672 3.993-9.795 3.002-0.624-0.161-1.454-0.839-2.255-0.822-0.983 0.022-1.942 0.746-2.655 0.555-1.298-0.349-2.617-1.589-3.609-1.271-1.191 0.382-1.164 2.756-1.943 3.607-1.511 1.649-3.261 2.126-3.25 3.171 0.010 0.999 1.982 2.3 1.585 3.845s-2.731 1.197-2.655 1.782c0.127 1.010 1.671 1.963 1.822 2.221s-1.028 0.995-0.832 1.982c0.175 1.226 3.409 2.379 0.594 3.488 0.913 0.794 1.878 0.664 4.083 0.438z"></path>
</symbol>
<symbol id="icon-hairdryer-and-comb" viewBox="0 0 32 32">
<path d="M25.853 13.709c1.965-1.356 3.254-3.621 3.254-6.189 0-4.153-3.367-7.52-7.52-7.52-0.802 0-1.574 0.128-2.299 0.362-5.051 0-14.599 0-15.524 0-1.266 0-1.048 6.869 0 6.869 0.548 0 5.61 0 10.319 0-0.003 0.098-0.014 0.192-0.014 0.289 0 3.734 2.723 6.823 6.29 7.412v1.627h-0.868v1.627h0.868v0.976h-0.868v1.627h0.868v3.197c-0.536 0.562-0.868 1.319-0.868 2.154 0 1.737 1.425 3.146 3.183 3.146 0.485 0 0.944-0.111 1.355-0.304l2.022 3.019 0.84-0.563-2.025-3.023c0.607-0.574 0.987-1.38 0.987-2.275 0-0.367-0.068-0.72-0.184-1.049h0.184v-11.381h0.001zM21.587 4.772c0.564 0 1.088 0.17 1.523 0.461h-3.045c0.436-0.291 0.959-0.461 1.523-0.461zM19.744 5.486h3.686c0.192 0.175 0.36 0.375 0.496 0.596h-4.677c0.136-0.222 0.303-0.422 0.495-0.596zM19.11 6.336h4.953c0.096 0.201 0.171 0.416 0.218 0.641h-5.388c0.046-0.226 0.121-0.44 0.218-0.641zM21.587 10.267c-0.557 0-1.075-0.166-1.508-0.452h3.016c-0.434 0.285-0.951 0.452-1.509 0.452zM23.42 9.562h-3.666c-0.183-0.164-0.345-0.353-0.478-0.56h4.623c-0.135 0.208-0.297 0.396-0.479 0.56zM24.043 8.749h-4.911c-0.092-0.186-0.165-0.382-0.215-0.588h5.339c-0.048 0.206-0.121 0.403-0.213 0.588zM24.304 7.909h-5.435c-0.019-0.127-0.030-0.257-0.030-0.389 0-0.098 0.005-0.193 0.015-0.289h5.465c0.009 0.096 0.016 0.192 0.016 0.289 0 0.132-0.014 0.262-0.031 0.389z"></path>
<path d="M12.621 20.246h-0.579v-6.218h-0.542v6.218h-0.434v-6.218h-0.542v6.218h-0.579v-6.218h-0.543v6.218h-0.542v-6.218h-0.542v6.218h-0.579v-6.218h-0.542v6.218h-0.687v-6.218h-0.542v6.218h-0.579v-6.218h-0.542v9.644l0.868 4.094h6.581l0.867-4.094v-9.644h-0.542z"></path>
</symbol>
<symbol id="icon-nail" viewBox="0 0 32 32">
<path d="M31.918 0.658c-0.166-0.4-0.557-0.66-0.99-0.658h-9.018c-0.428-0.001-0.838 0.168-1.141 0.471l-3.393 3.384c-0.304 0.3-0.475 0.71-0.476 1.137s0.171 0.837 0.475 1.137l0.765 0.758-3.85 3.794c-0.077-0.149-0.155-0.297-0.244-0.436l-0.001-0.002-0.005-0.009-0.007-0.012-0.008-0.011c-0.057-0.1-0.122-0.195-0.192-0.286l-0.002-0.002-0.005-0.008c-0.129-0.181-0.267-0.355-0.415-0.52v0l-0.006-0.008-0.005-0.004c-0.012-0.014-0.025-0.027-0.039-0.040-0.073-0.078-0.146-0.154-0.22-0.225-0.010-0.009-0.019-0.020-0.029-0.029l-0.003-0.002c-0.891-0.861-2.038-1.41-3.268-1.565-0.107-0.018-0.215-0.030-0.323-0.036-0.030-0.005-0.061-0.008-0.092-0.008-0.041-0.004-0.083-0.005-0.125-0.004-0.016 0-0.032-0.002-0.048-0.002l-0.003 0.001c-0.060-0.003-0.121-0.006-0.184-0.006h-1.067c-0.119 0-0.237 0.005-0.325 0.010-0.011 0-0.022 0-0.033 0.001l-0.006 0.002c-0.029 0-0.059 0.002-0.088 0.006-0.101 0.006-0.202 0.017-0.302 0.033l-0.015 0.002-0.007 0.001-0.002 0.001c-1.23 0.156-2.376 0.705-3.268 1.566-0.081 0.077-0.159 0.158-0.254 0.261-0.013 0.011-0.025 0.023-0.036 0.036l-0.003 0.002-0.005 0.006-0.002 0.002-0.003 0.004c-0.146 0.157-0.28 0.325-0.402 0.502l-0.007 0.011-0.004 0.005c-0.071 0.1-0.141 0.201-0.199 0.296-0.005 0.008-0.008 0.016-0.013 0.023l-0.005 0.008-0.001 0.003c-0.438 0.7-0.721 1.486-0.828 2.305-1.395 1.309-2.188 3.136-2.192 5.049v13.333c0.001 0.589 0.478 1.066 1.067 1.067h14.933c0.589-0.001 1.066-0.478 1.067-1.067v-13.333c-0.003-1.402-0.43-2.77-1.224-3.925l4.587-4.521 0.774 0.767c0.633 0.623 1.649 0.623 2.282 0.001l8.197-8.097c0.308-0.305 0.401-0.765 0.235-1.166zM3.201 13.333c0-0.165 0.010-0.319 0.025-0.479l0.001-0.015v-0.005c0.001-0.007 0.002-0.015 0.003-0.022h0.001c0.078-0.723 0.322-1.418 0.714-2.031 0.053-0.086 0.11-0.167 0.166-0.247 0.104-0.146 0.216-0.287 0.335-0.421 0.015-0.014 0.028-0.027 0.036-0.036 0.057-0.061 0.115-0.122 0.178-0.182 0.009-0.009 0.017-0.018 0.026-0.027v-0.001l0.004-0.004c0.739-0.713 1.69-1.165 2.71-1.288 0.081-0.013 0.162-0.022 0.244-0.025 0.017-0.001 0.034-0.002 0.051-0.005h0.002c0.098-0.005 0.201-0.010 0.304-0.010h1.067c0.047 0 0.095-0.001 0.186 0.005 0.028-0.001 0.056 0 0.084 0.002 0.009 0.001 0.020 0.002 0.032 0.002 0.018 0.003 0.036 0.005 0.055 0.005 0.089 0.005 0.178 0.014 0.266 0.029 1.014 0.126 1.959 0.578 2.693 1.289 0.071 0.066 0.137 0.138 0.204 0.209 0.010 0.011 0.022 0.022 0.033 0.033 0.118 0.133 0.229 0.272 0.332 0.417l0.009 0.013c0.056 0.079 0.112 0.158 0.17 0.252 0.137 0.218 0.255 0.447 0.353 0.685l-2.98 2.937c-0.503 0.056-2.008 0.369-3.761 2.123-0.666 0.667-0.326 2.012 0.792 3.13 0.437 0.452 0.97 0.799 1.56 1.015 0.219 0.076 0.448 0.117 0.679 0.12 0.331 0.012 0.653-0.112 0.891-0.343 1.768-1.768 2.072-3.282 2.124-3.773l1.079-1.063v4.644c0.001 1.074-0.325 2.123-0.933 3.008-1.083-0.91-2.452-1.408-3.867-1.408h-1.067c-1.414 0-2.784 0.498-3.867 1.408-0.609-0.885-0.934-1.934-0.933-3.008v-6.933zM10.535 15.484l1.183 1.172c-0.063 0.403-0.365 1.605-1.807 3.047-0.030 0.030-0.191 0.061-0.479-0.035-0.432-0.165-0.823-0.423-1.143-0.757-0.779-0.779-0.895-1.518-0.792-1.622 1.431-1.431 2.624-1.74 3.037-1.806zM12.246 24.089c-2.064 2.015-5.359 2.015-7.424 0 0.891-0.747 2.016-1.156 3.178-1.155h1.067c1.162-0.001 2.288 0.408 3.178 1.155zM16.001 17.6v13.333h-14.933v-13.333c0.002-1.203 0.375-2.377 1.067-3.362v6.028c0 1.519 0.542 2.988 1.53 4.142 0.010 0.016 0.021 0.031 0.032 0.046 0.007 0.006 0.016 0.008 0.023 0.014 1.211 1.395 2.967 2.197 4.814 2.197s3.604-0.801 4.815-2.197c0.007-0.006 0.016-0.008 0.023-0.015 0.012-0.015 0.022-0.030 0.032-0.046 0.988-1.154 1.531-2.623 1.53-4.142v-5.696l0.136-0.134c0.606 0.944 0.929 2.041 0.931 3.163zM12.269 15.7l-0.773-0.766 2.927-2.885c0.042-0.031 0.080-0.067 0.111-0.109l4.366-4.303 0.773 0.766-7.404 7.297zM22.735 9.163c-0.216 0.213-0.564 0.213-0.78 0l-3.829-3.792c-0.102-0.1-0.159-0.237-0.159-0.38s0.058-0.28 0.16-0.38l3.394-3.385c0.103-0.102 0.243-0.159 0.388-0.16l9.023-0.002-8.198 8.098z"></path>
</symbol>
<symbol id="icon-nail-file" viewBox="0 0 32 32">
<path d="M6.303 26.5c-1.279 0-2.516 0.375-3.58 1.084l0.554 0.832c0.899-0.599 1.946-0.916 3.026-0.916h0.394c1.080 0 2.126 0.317 3.026 0.916l0.555-0.832c-1.063-0.709-2.301-1.084-3.579-1.084z"></path>
<path d="M8.29 25.791l0.552 0.183 0.316-0.949-0.552-0.183c-1.362-0.454-2.851-0.454-4.214 0l-0.551 0.183 0.317 0.949 0.551-0.184c1.157-0.386 2.424-0.386 3.581 0z"></path>
<path d="M24.854 20.146c-0.195-0.195-0.512-0.195-0.707 0l-0.646 0.646-0.793-0.793 1.146-1.146c0.195-0.195 0.195-0.512 0-0.707l-17.5-17.5c-0.093-0.094-0.221-0.146-0.354-0.146-1.423 0-2.761 0.554-3.767 1.561l-0.172 0.171c-1.006 1.007-1.56 2.345-1.56 3.768 0 0.133 0.052 0.26 0.146 0.354l2.412 2.412c-0.038 0.071-0.058 0.152-0.058 0.235v2.89c-1.306 2.657-2 5.62-2 8.582v11.028h1v-11.028c0-2.024 0.346-4.048 1-5.965v2.993c0 1.378 1.122 2.5 2.5 2.5h2c1.379 0 2.5-1.122 2.5-2.5v-1.793l0.496 0.497c0.333 1.398 0.504 2.834 0.504 4.268v11.028h1v-11.028c0-1.007-0.087-2.012-0.242-3.008l6.389 6.389c0.098 0.098 0.226 0.147 0.354 0.147s0.256-0.049 0.354-0.146l1.146-1.146 0.793 0.793-0.646 0.646c-0.195 0.195-0.195 0.512 0 0.707l6.5 6.5 0.707-0.707-6.146-6.146 3.293-3.293 6.146 6.146 0.707-0.707zM20.793 20.5h-4.586l-1-1h6.586zM14.207 18.5l-1-1h8.586l1 1zM12.793 8.5h-8.586l-1-1h8.586zM13.793 9.5l1 1h-8.586l-1-1zM15.793 11.5l1 1h-8.586l-1-1zM17.793 13.5l1 1h-8.586l-1-1zM19.793 15.5l1 1h-8.586l-1-1zM7.793 3.5l1 1h-7.023c0.131-0.354 0.306-0.69 0.527-1zM6.793 2.5h-3.56c0.724-0.605 1.616-0.952 2.565-0.996zM1.532 5.5h8.261l1 1h-8.586l-0.703-0.702c0.004-0.1 0.016-0.199 0.028-0.298zM9 17.5c0 0.827-0.673 1.5-1.5 1.5h-2c-0.827 0-1.5-0.673-1.5-1.5v-7.793l5 5zM18.5 22.793l-1.293-1.293h2.586zM20.707 22l1.293-1.293 0.793 0.793-1.293 1.293z"></path>
<path d="M24.854 23.354l-0.707-0.707-1.5 1.5c-0.195 0.195-0.195 0.512 0 0.707l6.5 6.5 0.707-0.707-6.146-6.146z"></path>
</symbol>
<symbol id="icon-woman-hair-cut" viewBox="0 0 32 32">
<path d="M3.427 17.313c0 0 0.007 0.004 0.016 0.011-0.005 0-0.010 0-0.015 0-1.638 0.065-2.922 1.311-2.862 2.775s1.442 2.598 3.080 2.53c1.143-0.047 2.113-0.67 2.575-1.538 0.051-0.074 1.888-2.707 4.894-3.383 0.074-0.006 0.413-0.073 0.93-0.184l-0.789-0.8-7.829 0.59zM3.609 21.77c-1.165 0.047-2.145-0.72-2.186-1.707-0.041-0.99 0.874-1.831 2.038-1.879s2.144 0.718 2.184 1.706c0.041 0.987-0.872 1.832-2.037 1.88z"></path>
<path d="M10.774 15.362c-2.979-0.416-4.977-2.742-5.124-2.916-0.521-0.858-1.555-1.424-2.724-1.376-1.639 0.066-2.922 1.311-2.862 2.775s1.442 2.597 3.080 2.53c0.053-0.001 0.105-0.008 0.156-0.014l8.073-0.034 1.093 1.106 10.935 0.076-0.472-0.294c-0.001 0.001-11.683-1.854-12.154-1.854zM3.107 15.516c-1.163 0.047-2.143-0.718-2.184-1.706s0.873-1.833 2.037-1.88c1.165-0.047 2.144 0.719 2.186 1.707s-0.873 1.831-2.038 1.879zM12.855 16.945c-0.25 0.011-0.462-0.185-0.472-0.435-0.009-0.249 0.185-0.461 0.435-0.47 0.25-0.012 0.461 0.185 0.472 0.433 0.009 0.25-0.185 0.461-0.435 0.472z"></path>
<path d="M31.938 31.247c-2.062-1.67-2.434-9.028-2.434-9.028s0.165 0.536 0.722 0.845c-0.722-3.071-1.073-5.522-1.073-5.522s0.578 0.865 1.196 0.66c-0.578-0.556-1.052-1.98-1.052-1.98s0.757 0.695 1.113 0.619c-0.462-0.682-1.154-3.421-1.154-3.421s1.2 1.118 1.757 1.056c-0.51-0.34-1.406-2.438-1.406-2.438s1.004 0.83 1.389 0.536c-0.633-0.232-1.080-1.010-1.080-1.010s1.376 0.223 1.792-0.103c-1.052-0.108-1.235-0.824-1.235-0.824s1.035-0.072 1.276-0.515c-2.266 0.551-1.88-3.236-2.328-4.55-0.449-1.314-2.576-7.198-6.492-5.136-2.301-1.105-4.626 1.159-5.379 3.565-0.933 2.984-0.234 6.514-3.361 7.997 0.608 0.165 1.556-0.495 1.556-0.495s0.168 0.381-0.11 0.526c0.495 0.238 1.605-0.835 1.605-0.835s-0.555 1.073-0.926 1.257c0.042 0.32 0.681-0.145 0.681-0.145s-0.506 1.279-1.052 1.67c0.011 0.391 0.845-0.238 1.36-0.556-0.203 0.213-0.897 1.313-1.913 1.947l-1.411 0.108c0.765 0.116 1.621 0.248 2.492 0.382-0.012 0.024-0.020 0.050-0.034 0.076 0.038-0.017 0.069-0.045 0.106-0.066 0.591 0.093 1.187 0.186 1.768 0.278 2.535-0.568 4.763-1.073 4.763-1.073l0.485-0.327-4.142 0.316c-0.114-0.548-0.229-1.106-0.342-1.702-0.287-0.734 1.669-9.152 2.35-9.255 1.506 2.184 3.771 5.277 4.844 6.163 2.843 2.433-0.644 4.466-1.361 4.989-0.742 0.864 1.154 6.491 2.225 6.945 0.165 0.344-0.476 3.666 0.061 4.634s1.824 2.187 1.094 4.908c1.443 1.875 0.372-7.008 0.372-7.008s1.443 6.699 3.277 6.515zM16.828 14.758c0 0-0.033 0.209-0.127 0.507l-0.773 0.059c0.489-0.175 0.9-0.566 0.9-0.566zM17.267 15.221c0.034-0.043 0.056-0.073 0.056-0.073s0 0.028 0.002 0.069l-0.058 0.004z"></path>
</symbol>
</defs>
</svg>
